<?xml version="1.0" encoding="UTF-8" standalone="no"?><svg xmlns="http://www.w3.org/2000/svg" xmlns:xlink="http://www.w3.org/1999/xlink" contentScriptType="application/ecmascript" contentStyleType="text/css" height="647px" preserveAspectRatio="none" style="width:1013px;height:647px;" version="1.1" viewBox="0 0 1013 647" width="1013px" zoomAndPan="magnify"><defs><filter height="300%" id="f13cuap01jryt6" width="300%" x="-1" y="-1"><feGaussianBlur result="blurOut" stdDeviation="2.0"/><feColorMatrix in="blurOut" result="blurOut2" type="matrix" values="0 0 0 0 0 0 0 0 0 0 0 0 0 0 0 0 0 0 .4 0"/><feOffset dx="4.0" dy="4.0" in="blurOut2" result="blurOut3"/><feBlend in="SourceGraphic" in2="blurOut3" mode="normal"/></filter></defs><g><text fill="#000000" font-family="sans-serif" font-size="30" lengthAdjust="spacingAndGlyphs" textLength="208" x="408.5" y="27.8467">Arrow Legend</text><text fill="#000000" font-family="sans-serif" font-size="30" font-weight="bold" lengthAdjust="spacingAndGlyphs" textLength="0" x="329.5" y="64.7686"/><text fill="#000000" font-family="sans-serif" font-size="30" font-weight="bold" lengthAdjust="spacingAndGlyphs" textLength="0" x="477.5" y="64.7686"/><text fill="#000000" font-family="sans-serif" font-size="30" lengthAdjust="spacingAndGlyphs" textLength="115" x="329.5" y="99.6904">A ―▷ B</text><text fill="#000000" font-family="sans-serif" font-size="30" lengthAdjust="spacingAndGlyphs" textLength="182" x="467.5" y="99.6904">A extends B</text><text fill="#000000" font-family="sans-serif" font-size="30" lengthAdjust="spacingAndGlyphs" textLength="118" x="329.5" y="134.6123">A ---▷ B</text><text fill="#000000" font-family="sans-serif" font-size="30" lengthAdjust="spacingAndGlyphs" textLength="238" x="467.5" y="134.6123">A implements B</text><line style="stroke: #000000; stroke-width: 1.0;" x1="319.5" x2="705.5" y1="36.9219" y2="36.9219"/><line style="stroke: #000000; stroke-width: 1.0;" x1="319.5" x2="705.5" y1="71.8438" y2="71.8438"/><line style="stroke: #000000; stroke-width: 1.0;" x1="319.5" x2="705.5" y1="106.7656" y2="106.7656"/><line style="stroke: #000000; stroke-width: 1.0;" x1="319.5" x2="705.5" y1="141.6875" y2="141.6875"/><line style="stroke: #000000; stroke-width: 1.0;" x1="319.5" x2="319.5" y1="36.9219" y2="141.6875"/><line style="stroke: #000000; stroke-width: 1.0;" x1="457.5" x2="457.5" y1="36.9219" y2="141.6875"/><line style="stroke: #000000; stroke-width: 1.0;" x1="705.5" x2="705.5" y1="36.9219" y2="141.6875"/><!--cluster android.os--><polygon fill="#FFFFFF" filter="url(#f13cuap01jryt6)" points="188,167.6875,278,167.6875,285,189.9844,425,189.9844,425,389.6875,188,389.6875,188,167.6875" style="stroke: #000000; stroke-width: 2.0;"/><line style="stroke: #000000; stroke-width: 2.0;" x1="188" x2="285" y1="189.9844" y2="189.9844"/><text fill="#000000" font-family="sans-serif" font-size="14" font-weight="bold" lengthAdjust="spacingAndGlyphs" textLength="84" x="192" y="182.6826">android.os</text><!--cluster com.android.server.clipboard--><polygon fill="#FFFFFF" filter="url(#f13cuap01jryt6)" points="152,536.6875,391,536.6875,398,558.9844,991,558.9844,991,635.6875,152,635.6875,152,536.6875" style="stroke: #000000; stroke-width: 2.0;"/><line style="stroke: #000000; stroke-width: 2.0;" x1="152" x2="398" y1="558.9844" y2="558.9844"/><text fill="#000000" font-family="sans-serif" font-size="14" font-weight="bold" lengthAdjust="spacingAndGlyphs" textLength="233" x="156" y="551.6826">com.android.server.clipboard</text><!--cluster java.lang--><polygon fill="#FFFFFF" filter="url(#f13cuap01jryt6)" points="513,167.6875,588,167.6875,595,189.9844,744,189.9844,744,266.6875,513,266.6875,513,167.6875" style="stroke: #000000; stroke-width: 2.0;"/><line style="stroke: #000000; stroke-width: 2.0;" x1="513" x2="595" y1="189.9844" y2="189.9844"/><text fill="#000000" font-family="sans-serif" font-size="14" font-weight="bold" lengthAdjust="spacingAndGlyphs" textLength="69" x="517" y="182.6826">java.lang</text><!--cluster android.content--><polygon fill="#FFFFFF" filter="url(#f13cuap01jryt6)" points="22,290.6875,154,290.6875,161,312.9844,164,312.9844,164,389.6875,22,389.6875,22,290.6875" style="stroke: #000000; stroke-width: 2.0;"/><line style="stroke: #000000; stroke-width: 2.0;" x1="22" x2="161" y1="312.9844" y2="312.9844"/><text fill="#000000" font-family="sans-serif" font-size="14" font-weight="bold" lengthAdjust="spacingAndGlyphs" textLength="126" x="26" y="305.6826">android.content</text><!--cluster IClipboard--><polygon fill="#FFFFFF" filter="url(#f13cuap01jryt6)" points="179,413.6875,264,413.6875,271,435.9844,274,435.9844,274,512.6875,179,512.6875,179,413.6875" style="stroke: #000000; stroke-width: 2.0;"/><line style="stroke: #000000; stroke-width: 2.0;" x1="179" x2="271" y1="435.9844" y2="435.9844"/><text fill="#000000" font-family="sans-serif" font-size="14" font-weight="bold" lengthAdjust="spacingAndGlyphs" textLength="79" x="183" y="428.6826">IClipboard</text><!--cluster com.android.server--><polygon fill="#FFFFFF" filter="url(#f13cuap01jryt6)" points="636,290.6875,797,290.6875,804,312.9844,807,312.9844,807,389.6875,636,389.6875,636,290.6875" style="stroke: #000000; stroke-width: 2.0;"/><line style="stroke: #000000; stroke-width: 2.0;" x1="636" x2="804" y1="312.9844" y2="312.9844"/><text fill="#000000" font-family="sans-serif" font-size="14" font-weight="bold" lengthAdjust="spacingAndGlyphs" textLength="155" x="640" y="305.6826">com.android.server</text><!--class Binder--><rect fill="#FEFECE" filter="url(#f13cuap01jryt6)" height="48" id="Binder" style="stroke: #A80036; stroke-width: 1.5;" width="72" x="334" y="325.6875"/><ellipse cx="349" cy="341.6875" fill="#ADD1B2" rx="11" ry="11" style="stroke: #A80036; stroke-width: 1.0;"/><path d="M351.3438,337.3594 L351.5156,337.4375 C351.7344,337.125 351.9375,337.0313 352.2344,337.0313 C352.5313,337.0313 352.8125,337.1719 352.9688,337.4375 C353.0625,337.5938 353.0781,337.7188 353.0781,338.1563 L353.0781,339.5781 C353.0781,340 353.0469,340.1875 352.9375,340.3438 C352.7656,340.5625 352.5,340.7031 352.2344,340.7031 C352.0156,340.7031 351.7813,340.5938 351.6406,340.4531 C351.5,340.3281 351.4688,340.2031 351.4063,339.7969 C351.3125,339.3906 351.1406,339.1719 350.6563,338.8906 C350.1875,338.6406 349.5781,338.4844 349,338.4844 C347.2656,338.4844 346.0156,339.7969 346.0156,341.5781 L346.0156,342.6719 C346.0156,344.375 347.3125,345.4688 349.3594,345.4688 C350.125,345.4688 350.8125,345.3438 351.2344,345.0781 C351.4219,344.9844 351.4219,344.9844 351.875,344.5 C352.0625,344.3125 352.2656,344.2344 352.4844,344.2344 C352.9531,344.2344 353.3438,344.625 353.3438,345.0781 C353.3438,345.4688 353.0156,345.9219 352.4375,346.3281 C351.6875,346.875 350.5313,347.1719 349.3125,347.1719 C346.4219,347.1719 344.3125,345.2813 344.3125,342.7031 L344.3125,341.5781 C344.3125,338.8594 346.3125,336.7813 348.9375,336.7813 C349.8125,336.7813 350.4063,336.9219 351.3438,337.3594 Z "/><text fill="#000000" font-family="sans-serif" font-size="12" lengthAdjust="spacingAndGlyphs" textLength="40" x="363" y="345.8418">Binder</text><line style="stroke: #A80036; stroke-width: 1.5;" x1="335" x2="405" y1="357.6875" y2="357.6875"/><line style="stroke: #A80036; stroke-width: 1.5;" x1="335" x2="405" y1="365.6875" y2="365.6875"/><!--class IBinder--><rect fill="#FEFECE" filter="url(#f13cuap01jryt6)" height="48" id="IBinder" style="stroke: #A80036; stroke-width: 1.5;" width="76" x="333" y="202.6875"/><ellipse cx="348" cy="218.6875" fill="#B4A7E5" rx="11" ry="11" style="stroke: #A80036; stroke-width: 1.0;"/><path d="M348.9531,215.4688 L348.9531,221.9844 L350.6719,221.9844 C351.125,221.9844 351.2656,222.0156 351.4375,222.1406 C351.6719,222.3125 351.7813,222.5625 351.7813,222.8438 C351.7813,223.4063 351.4219,223.6875 350.6719,223.6875 L345.5313,223.6875 C345.125,223.6875 344.9219,223.6406 344.7656,223.5156 C344.5469,223.3594 344.4063,223.0938 344.4063,222.8438 C344.4063,222.5469 344.5625,222.2656 344.8125,222.1094 C344.9688,222 345.0938,221.9844 345.5313,221.9844 L347.25,221.9844 L347.25,215.4688 L345.5313,215.4688 C345.1094,215.4688 344.9219,215.4375 344.7656,215.3281 C344.5469,215.1563 344.4063,214.9063 344.4063,214.625 C344.4063,214.3438 344.5625,214.0469 344.8125,213.8906 C344.9688,213.7969 345.0938,213.7813 345.5313,213.7813 L350.6719,213.7813 C351.125,213.7813 351.2656,213.8125 351.4375,213.9219 C351.6719,214.0938 351.7813,214.3594 351.7813,214.625 C351.7813,214.9219 351.6406,215.2031 351.375,215.3594 C351.25,215.4375 351.0625,215.4688 350.6719,215.4688 Z "/><text fill="#000000" font-family="sans-serif" font-size="12" font-style="italic" lengthAdjust="spacingAndGlyphs" textLength="44" x="362" y="222.8418">IBinder</text><line style="stroke: #A80036; stroke-width: 1.5;" x1="334" x2="408" y1="234.6875" y2="234.6875"/><line style="stroke: #A80036; stroke-width: 1.5;" x1="334" x2="408" y1="242.6875" y2="242.6875"/><!--class IInterface--><rect fill="#FEFECE" filter="url(#f13cuap01jryt6)" height="48" id="IInterface" style="stroke: #A80036; stroke-width: 1.5;" width="93" x="204.5" y="202.6875"/><ellipse cx="219.5" cy="218.6875" fill="#B4A7E5" rx="11" ry="11" style="stroke: #A80036; stroke-width: 1.0;"/><path d="M220.4531,215.4688 L220.4531,221.9844 L222.1719,221.9844 C222.625,221.9844 222.7656,222.0156 222.9375,222.1406 C223.1719,222.3125 223.2813,222.5625 223.2813,222.8438 C223.2813,223.4063 222.9219,223.6875 222.1719,223.6875 L217.0313,223.6875 C216.625,223.6875 216.4219,223.6406 216.2656,223.5156 C216.0469,223.3594 215.9063,223.0938 215.9063,222.8438 C215.9063,222.5469 216.0625,222.2656 216.3125,222.1094 C216.4688,222 216.5938,221.9844 217.0313,221.9844 L218.75,221.9844 L218.75,215.4688 L217.0313,215.4688 C216.6094,215.4688 216.4219,215.4375 216.2656,215.3281 C216.0469,215.1563 215.9063,214.9063 215.9063,214.625 C215.9063,214.3438 216.0625,214.0469 216.3125,213.8906 C216.4688,213.7969 216.5938,213.7813 217.0313,213.7813 L222.1719,213.7813 C222.625,213.7813 222.7656,213.8125 222.9375,213.9219 C223.1719,214.0938 223.2813,214.3594 223.2813,214.625 C223.2813,214.9219 223.1406,215.2031 222.875,215.3594 C222.75,215.4375 222.5625,215.4688 222.1719,215.4688 Z "/><text fill="#000000" font-family="sans-serif" font-size="12" font-style="italic" lengthAdjust="spacingAndGlyphs" textLength="61" x="233.5" y="222.8418">IInterface</text><line style="stroke: #A80036; stroke-width: 1.5;" x1="205.5" x2="296.5" y1="234.6875" y2="234.6875"/><line style="stroke: #A80036; stroke-width: 1.5;" x1="205.5" x2="296.5" y1="242.6875" y2="242.6875"/><!--class ClipboardService--><rect fill="#FEFECE" filter="url(#f13cuap01jryt6)" height="48" id="ClipboardService" style="stroke: #A80036; stroke-width: 1.5;" width="136" x="636" y="571.6875"/><ellipse cx="651" cy="587.6875" fill="#ADD1B2" rx="11" ry="11" style="stroke: #A80036; stroke-width: 1.0;"/><path d="M653.3438,583.3594 L653.5156,583.4375 C653.7344,583.125 653.9375,583.0313 654.2344,583.0313 C654.5313,583.0313 654.8125,583.1719 654.9688,583.4375 C655.0625,583.5938 655.0781,583.7188 655.0781,584.1563 L655.0781,585.5781 C655.0781,586 655.0469,586.1875 654.9375,586.3438 C654.7656,586.5625 654.5,586.7031 654.2344,586.7031 C654.0156,586.7031 653.7813,586.5938 653.6406,586.4531 C653.5,586.3281 653.4688,586.2031 653.4063,585.7969 C653.3125,585.3906 653.1406,585.1719 652.6563,584.8906 C652.1875,584.6406 651.5781,584.4844 651,584.4844 C649.2656,584.4844 648.0156,585.7969 648.0156,587.5781 L648.0156,588.6719 C648.0156,590.375 649.3125,591.4688 651.3594,591.4688 C652.125,591.4688 652.8125,591.3438 653.2344,591.0781 C653.4219,590.9844 653.4219,590.9844 653.875,590.5 C654.0625,590.3125 654.2656,590.2344 654.4844,590.2344 C654.9531,590.2344 655.3438,590.625 655.3438,591.0781 C655.3438,591.4688 655.0156,591.9219 654.4375,592.3281 C653.6875,592.875 652.5313,593.1719 651.3125,593.1719 C648.4219,593.1719 646.3125,591.2813 646.3125,588.7031 L646.3125,587.5781 C646.3125,584.8594 648.3125,582.7813 650.9375,582.7813 C651.8125,582.7813 652.4063,582.9219 653.3438,583.3594 Z "/><text fill="#000000" font-family="sans-serif" font-size="12" lengthAdjust="spacingAndGlyphs" textLength="104" x="665" y="591.8418">ClipboardService</text><line style="stroke: #A80036; stroke-width: 1.5;" x1="637" x2="771" y1="603.6875" y2="603.6875"/><line style="stroke: #A80036; stroke-width: 1.5;" x1="637" x2="771" y1="611.6875" y2="611.6875"/><!--class HostClipboardMonitor--><rect fill="#FEFECE" filter="url(#f13cuap01jryt6)" height="48" id="HostClipboardMonitor" style="stroke: #A80036; stroke-width: 1.5;" width="167" x="807.5" y="571.6875"/><ellipse cx="822.5" cy="587.6875" fill="#ADD1B2" rx="11" ry="11" style="stroke: #A80036; stroke-width: 1.0;"/><path d="M824.8438,583.3594 L825.0156,583.4375 C825.2344,583.125 825.4375,583.0313 825.7344,583.0313 C826.0313,583.0313 826.3125,583.1719 826.4688,583.4375 C826.5625,583.5938 826.5781,583.7188 826.5781,584.1563 L826.5781,585.5781 C826.5781,586 826.5469,586.1875 826.4375,586.3438 C826.2656,586.5625 826,586.7031 825.7344,586.7031 C825.5156,586.7031 825.2813,586.5938 825.1406,586.4531 C825,586.3281 824.9688,586.2031 824.9063,585.7969 C824.8125,585.3906 824.6406,585.1719 824.1563,584.8906 C823.6875,584.6406 823.0781,584.4844 822.5,584.4844 C820.7656,584.4844 819.5156,585.7969 819.5156,587.5781 L819.5156,588.6719 C819.5156,590.375 820.8125,591.4688 822.8594,591.4688 C823.625,591.4688 824.3125,591.3438 824.7344,591.0781 C824.9219,590.9844 824.9219,590.9844 825.375,590.5 C825.5625,590.3125 825.7656,590.2344 825.9844,590.2344 C826.4531,590.2344 826.8438,590.625 826.8438,591.0781 C826.8438,591.4688 826.5156,591.9219 825.9375,592.3281 C825.1875,592.875 824.0313,593.1719 822.8125,593.1719 C819.9219,593.1719 817.8125,591.2813 817.8125,588.7031 L817.8125,587.5781 C817.8125,584.8594 819.8125,582.7813 822.4375,582.7813 C823.3125,582.7813 823.9063,582.9219 824.8438,583.3594 Z "/><text fill="#000000" font-family="sans-serif" font-size="12" lengthAdjust="spacingAndGlyphs" textLength="135" x="836.5" y="591.8418">HostClipboardMonitor</text><line style="stroke: #A80036; stroke-width: 1.5;" x1="808.5" x2="973.5" y1="603.6875" y2="603.6875"/><line style="stroke: #A80036; stroke-width: 1.5;" x1="808.5" x2="973.5" y1="611.6875" y2="611.6875"/><!--class PerUserClipboard--><rect fill="#FEFECE" filter="url(#f13cuap01jryt6)" height="48" id="PerUserClipboard" style="stroke: #A80036; stroke-width: 1.5;" width="141" x="459.5" y="571.6875"/><ellipse cx="474.5" cy="587.6875" fill="#ADD1B2" rx="11" ry="11" style="stroke: #A80036; stroke-width: 1.0;"/><path d="M476.8438,583.3594 L477.0156,583.4375 C477.2344,583.125 477.4375,583.0313 477.7344,583.0313 C478.0313,583.0313 478.3125,583.1719 478.4688,583.4375 C478.5625,583.5938 478.5781,583.7188 478.5781,584.1563 L478.5781,585.5781 C478.5781,586 478.5469,586.1875 478.4375,586.3438 C478.2656,586.5625 478,586.7031 477.7344,586.7031 C477.5156,586.7031 477.2813,586.5938 477.1406,586.4531 C477,586.3281 476.9688,586.2031 476.9063,585.7969 C476.8125,585.3906 476.6406,585.1719 476.1563,584.8906 C475.6875,584.6406 475.0781,584.4844 474.5,584.4844 C472.7656,584.4844 471.5156,585.7969 471.5156,587.5781 L471.5156,588.6719 C471.5156,590.375 472.8125,591.4688 474.8594,591.4688 C475.625,591.4688 476.3125,591.3438 476.7344,591.0781 C476.9219,590.9844 476.9219,590.9844 477.375,590.5 C477.5625,590.3125 477.7656,590.2344 477.9844,590.2344 C478.4531,590.2344 478.8438,590.625 478.8438,591.0781 C478.8438,591.4688 478.5156,591.9219 477.9375,592.3281 C477.1875,592.875 476.0313,593.1719 474.8125,593.1719 C471.9219,593.1719 469.8125,591.2813 469.8125,588.7031 L469.8125,587.5781 C469.8125,584.8594 471.8125,582.7813 474.4375,582.7813 C475.3125,582.7813 475.9063,582.9219 476.8438,583.3594 Z "/><text fill="#000000" font-family="sans-serif" font-size="12" lengthAdjust="spacingAndGlyphs" textLength="109" x="488.5" y="591.8418">PerUserClipboard</text><line style="stroke: #A80036; stroke-width: 1.5;" x1="460.5" x2="599.5" y1="603.6875" y2="603.6875"/><line style="stroke: #A80036; stroke-width: 1.5;" x1="460.5" x2="599.5" y1="611.6875" y2="611.6875"/><!--class ClipboardImpl--><rect fill="#FEFECE" filter="url(#f13cuap01jryt6)" height="48" id="ClipboardImpl" style="stroke: #A80036; stroke-width: 1.5;" width="116" x="168" y="571.6875"/><ellipse cx="183" cy="587.6875" fill="#ADD1B2" rx="11" ry="11" style="stroke: #A80036; stroke-width: 1.0;"/><path d="M185.3438,583.3594 L185.5156,583.4375 C185.7344,583.125 185.9375,583.0313 186.2344,583.0313 C186.5313,583.0313 186.8125,583.1719 186.9688,583.4375 C187.0625,583.5938 187.0781,583.7188 187.0781,584.1563 L187.0781,585.5781 C187.0781,586 187.0469,586.1875 186.9375,586.3438 C186.7656,586.5625 186.5,586.7031 186.2344,586.7031 C186.0156,586.7031 185.7813,586.5938 185.6406,586.4531 C185.5,586.3281 185.4688,586.2031 185.4063,585.7969 C185.3125,585.3906 185.1406,585.1719 184.6563,584.8906 C184.1875,584.6406 183.5781,584.4844 183,584.4844 C181.2656,584.4844 180.0156,585.7969 180.0156,587.5781 L180.0156,588.6719 C180.0156,590.375 181.3125,591.4688 183.3594,591.4688 C184.125,591.4688 184.8125,591.3438 185.2344,591.0781 C185.4219,590.9844 185.4219,590.9844 185.875,590.5 C186.0625,590.3125 186.2656,590.2344 186.4844,590.2344 C186.9531,590.2344 187.3438,590.625 187.3438,591.0781 C187.3438,591.4688 187.0156,591.9219 186.4375,592.3281 C185.6875,592.875 184.5313,593.1719 183.3125,593.1719 C180.4219,593.1719 178.3125,591.2813 178.3125,588.7031 L178.3125,587.5781 C178.3125,584.8594 180.3125,582.7813 182.9375,582.7813 C183.8125,582.7813 184.4063,582.9219 185.3438,583.3594 Z "/><text fill="#000000" font-family="sans-serif" font-size="12" lengthAdjust="spacingAndGlyphs" textLength="84" x="197" y="591.8418">ClipboardImpl</text><line style="stroke: #A80036; stroke-width: 1.5;" x1="169" x2="283" y1="603.6875" y2="603.6875"/><line style="stroke: #A80036; stroke-width: 1.5;" x1="169" x2="283" y1="611.6875" y2="611.6875"/><!--class ListenerInfo--><rect fill="#FEFECE" filter="url(#f13cuap01jryt6)" height="48" id="ListenerInfo" style="stroke: #A80036; stroke-width: 1.5;" width="105" x="319.5" y="571.6875"/><ellipse cx="334.5" cy="587.6875" fill="#ADD1B2" rx="11" ry="11" style="stroke: #A80036; stroke-width: 1.0;"/><path d="M336.8438,583.3594 L337.0156,583.4375 C337.2344,583.125 337.4375,583.0313 337.7344,583.0313 C338.0313,583.0313 338.3125,583.1719 338.4688,583.4375 C338.5625,583.5938 338.5781,583.7188 338.5781,584.1563 L338.5781,585.5781 C338.5781,586 338.5469,586.1875 338.4375,586.3438 C338.2656,586.5625 338,586.7031 337.7344,586.7031 C337.5156,586.7031 337.2813,586.5938 337.1406,586.4531 C337,586.3281 336.9688,586.2031 336.9063,585.7969 C336.8125,585.3906 336.6406,585.1719 336.1563,584.8906 C335.6875,584.6406 335.0781,584.4844 334.5,584.4844 C332.7656,584.4844 331.5156,585.7969 331.5156,587.5781 L331.5156,588.6719 C331.5156,590.375 332.8125,591.4688 334.8594,591.4688 C335.625,591.4688 336.3125,591.3438 336.7344,591.0781 C336.9219,590.9844 336.9219,590.9844 337.375,590.5 C337.5625,590.3125 337.7656,590.2344 337.9844,590.2344 C338.4531,590.2344 338.8438,590.625 338.8438,591.0781 C338.8438,591.4688 338.5156,591.9219 337.9375,592.3281 C337.1875,592.875 336.0313,593.1719 334.8125,593.1719 C331.9219,593.1719 329.8125,591.2813 329.8125,588.7031 L329.8125,587.5781 C329.8125,584.8594 331.8125,582.7813 334.4375,582.7813 C335.3125,582.7813 335.9063,582.9219 336.8438,583.3594 Z "/><text fill="#000000" font-family="sans-serif" font-size="12" lengthAdjust="spacingAndGlyphs" textLength="73" x="348.5" y="591.8418">ListenerInfo</text><line style="stroke: #A80036; stroke-width: 1.5;" x1="320.5" x2="423.5" y1="603.6875" y2="603.6875"/><line style="stroke: #A80036; stroke-width: 1.5;" x1="320.5" x2="423.5" y1="611.6875" y2="611.6875"/><!--class Object--><rect fill="#FEFECE" filter="url(#f13cuap01jryt6)" height="48" id="Object" style="stroke: #A80036; stroke-width: 1.5;" width="72" x="529" y="202.6875"/><ellipse cx="544" cy="218.6875" fill="#ADD1B2" rx="11" ry="11" style="stroke: #A80036; stroke-width: 1.0;"/><path d="M546.3438,214.3594 L546.5156,214.4375 C546.7344,214.125 546.9375,214.0313 547.2344,214.0313 C547.5313,214.0313 547.8125,214.1719 547.9688,214.4375 C548.0625,214.5938 548.0781,214.7188 548.0781,215.1563 L548.0781,216.5781 C548.0781,217 548.0469,217.1875 547.9375,217.3438 C547.7656,217.5625 547.5,217.7031 547.2344,217.7031 C547.0156,217.7031 546.7813,217.5938 546.6406,217.4531 C546.5,217.3281 546.4688,217.2031 546.4063,216.7969 C546.3125,216.3906 546.1406,216.1719 545.6563,215.8906 C545.1875,215.6406 544.5781,215.4844 544,215.4844 C542.2656,215.4844 541.0156,216.7969 541.0156,218.5781 L541.0156,219.6719 C541.0156,221.375 542.3125,222.4688 544.3594,222.4688 C545.125,222.4688 545.8125,222.3438 546.2344,222.0781 C546.4219,221.9844 546.4219,221.9844 546.875,221.5 C547.0625,221.3125 547.2656,221.2344 547.4844,221.2344 C547.9531,221.2344 548.3438,221.625 548.3438,222.0781 C548.3438,222.4688 548.0156,222.9219 547.4375,223.3281 C546.6875,223.875 545.5313,224.1719 544.3125,224.1719 C541.4219,224.1719 539.3125,222.2813 539.3125,219.7031 L539.3125,218.5781 C539.3125,215.8594 541.3125,213.7813 543.9375,213.7813 C544.8125,213.7813 545.4063,213.9219 546.3438,214.3594 Z "/><text fill="#000000" font-family="sans-serif" font-size="12" lengthAdjust="spacingAndGlyphs" textLength="40" x="558" y="222.8418">Object</text><line style="stroke: #A80036; stroke-width: 1.5;" x1="530" x2="600" y1="234.6875" y2="234.6875"/><line style="stroke: #A80036; stroke-width: 1.5;" x1="530" x2="600" y1="242.6875" y2="242.6875"/><!--class Runnable--><rect fill="#FEFECE" filter="url(#f13cuap01jryt6)" height="48" id="Runnable" style="stroke: #A80036; stroke-width: 1.5;" width="91" x="636.5" y="202.6875"/><ellipse cx="651.5" cy="218.6875" fill="#B4A7E5" rx="11" ry="11" style="stroke: #A80036; stroke-width: 1.0;"/><path d="M652.4531,215.4688 L652.4531,221.9844 L654.1719,221.9844 C654.625,221.9844 654.7656,222.0156 654.9375,222.1406 C655.1719,222.3125 655.2813,222.5625 655.2813,222.8438 C655.2813,223.4063 654.9219,223.6875 654.1719,223.6875 L649.0313,223.6875 C648.625,223.6875 648.4219,223.6406 648.2656,223.5156 C648.0469,223.3594 647.9063,223.0938 647.9063,222.8438 C647.9063,222.5469 648.0625,222.2656 648.3125,222.1094 C648.4688,222 648.5938,221.9844 649.0313,221.9844 L650.75,221.9844 L650.75,215.4688 L649.0313,215.4688 C648.6094,215.4688 648.4219,215.4375 648.2656,215.3281 C648.0469,215.1563 647.9063,214.9063 647.9063,214.625 C647.9063,214.3438 648.0625,214.0469 648.3125,213.8906 C648.4688,213.7969 648.5938,213.7813 649.0313,213.7813 L654.1719,213.7813 C654.625,213.7813 654.7656,213.8125 654.9375,213.9219 C655.1719,214.0938 655.2813,214.3594 655.2813,214.625 C655.2813,214.9219 655.1406,215.2031 654.875,215.3594 C654.75,215.4375 654.5625,215.4688 654.1719,215.4688 Z "/><text fill="#000000" font-family="sans-serif" font-size="12" font-style="italic" lengthAdjust="spacingAndGlyphs" textLength="59" x="665.5" y="222.8418">Runnable</text><line style="stroke: #A80036; stroke-width: 1.5;" x1="637.5" x2="726.5" y1="234.6875" y2="234.6875"/><line style="stroke: #A80036; stroke-width: 1.5;" x1="637.5" x2="726.5" y1="242.6875" y2="242.6875"/><!--class IClipboard--><rect fill="#FEFECE" filter="url(#f13cuap01jryt6)" height="48" id="IClipboard" style="stroke: #A80036; stroke-width: 1.5;" width="95" x="52.5" y="325.6875"/><ellipse cx="67.5" cy="341.6875" fill="#B4A7E5" rx="11" ry="11" style="stroke: #A80036; stroke-width: 1.0;"/><path d="M68.4531,338.4688 L68.4531,344.9844 L70.1719,344.9844 C70.625,344.9844 70.7656,345.0156 70.9375,345.1406 C71.1719,345.3125 71.2813,345.5625 71.2813,345.8438 C71.2813,346.4063 70.9219,346.6875 70.1719,346.6875 L65.0313,346.6875 C64.625,346.6875 64.4219,346.6406 64.2656,346.5156 C64.0469,346.3594 63.9063,346.0938 63.9063,345.8438 C63.9063,345.5469 64.0625,345.2656 64.3125,345.1094 C64.4688,345 64.5938,344.9844 65.0313,344.9844 L66.75,344.9844 L66.75,338.4688 L65.0313,338.4688 C64.6094,338.4688 64.4219,338.4375 64.2656,338.3281 C64.0469,338.1563 63.9063,337.9063 63.9063,337.625 C63.9063,337.3438 64.0625,337.0469 64.3125,336.8906 C64.4688,336.7969 64.5938,336.7813 65.0313,336.7813 L70.1719,336.7813 C70.625,336.7813 70.7656,336.8125 70.9375,336.9219 C71.1719,337.0938 71.2813,337.3594 71.2813,337.625 C71.2813,337.9219 71.1406,338.2031 70.875,338.3594 C70.75,338.4375 70.5625,338.4688 70.1719,338.4688 Z "/><text fill="#000000" font-family="sans-serif" font-size="12" font-style="italic" lengthAdjust="spacingAndGlyphs" textLength="63" x="81.5" y="345.8418">IClipboard</text><line style="stroke: #A80036; stroke-width: 1.5;" x1="53.5" x2="146.5" y1="357.6875" y2="357.6875"/><line style="stroke: #A80036; stroke-width: 1.5;" x1="53.5" x2="146.5" y1="365.6875" y2="365.6875"/><!--class IClipboard.Stub--><rect fill="#FEFECE" filter="url(#f13cuap01jryt6)" height="48" id="IClipboard.Stub" style="stroke: #A80036; stroke-width: 1.5;" width="61" x="195.5" y="448.6875"/><ellipse cx="210.5" cy="464.6875" fill="#ADD1B2" rx="11" ry="11" style="stroke: #A80036; stroke-width: 1.0;"/><path d="M212.8438,460.3594 L213.0156,460.4375 C213.2344,460.125 213.4375,460.0313 213.7344,460.0313 C214.0313,460.0313 214.3125,460.1719 214.4688,460.4375 C214.5625,460.5938 214.5781,460.7188 214.5781,461.1563 L214.5781,462.5781 C214.5781,463 214.5469,463.1875 214.4375,463.3438 C214.2656,463.5625 214,463.7031 213.7344,463.7031 C213.5156,463.7031 213.2813,463.5938 213.1406,463.4531 C213,463.3281 212.9688,463.2031 212.9063,462.7969 C212.8125,462.3906 212.6406,462.1719 212.1563,461.8906 C211.6875,461.6406 211.0781,461.4844 210.5,461.4844 C208.7656,461.4844 207.5156,462.7969 207.5156,464.5781 L207.5156,465.6719 C207.5156,467.375 208.8125,468.4688 210.8594,468.4688 C211.625,468.4688 212.3125,468.3438 212.7344,468.0781 C212.9219,467.9844 212.9219,467.9844 213.375,467.5 C213.5625,467.3125 213.7656,467.2344 213.9844,467.2344 C214.4531,467.2344 214.8438,467.625 214.8438,468.0781 C214.8438,468.4688 214.5156,468.9219 213.9375,469.3281 C213.1875,469.875 212.0313,470.1719 210.8125,470.1719 C207.9219,470.1719 205.8125,468.2813 205.8125,465.7031 L205.8125,464.5781 C205.8125,461.8594 207.8125,459.7813 210.4375,459.7813 C211.3125,459.7813 211.9063,459.9219 212.8438,460.3594 Z "/><text fill="#000000" font-family="sans-serif" font-size="12" lengthAdjust="spacingAndGlyphs" textLength="29" x="224.5" y="468.8418">Stub</text><line style="stroke: #A80036; stroke-width: 1.5;" x1="196.5" x2="255.5" y1="480.6875" y2="480.6875"/><line style="stroke: #A80036; stroke-width: 1.5;" x1="196.5" x2="255.5" y1="488.6875" y2="488.6875"/><!--class SystemService--><rect fill="#FEFECE" filter="url(#f13cuap01jryt6)" height="48" id="SystemService" style="stroke: #A80036; stroke-width: 1.5;" width="122" x="654" y="325.6875"/><ellipse cx="669" cy="341.6875" fill="#ADD1B2" rx="11" ry="11" style="stroke: #A80036; stroke-width: 1.0;"/><path d="M671.3438,337.3594 L671.5156,337.4375 C671.7344,337.125 671.9375,337.0313 672.2344,337.0313 C672.5313,337.0313 672.8125,337.1719 672.9688,337.4375 C673.0625,337.5938 673.0781,337.7188 673.0781,338.1563 L673.0781,339.5781 C673.0781,340 673.0469,340.1875 672.9375,340.3438 C672.7656,340.5625 672.5,340.7031 672.2344,340.7031 C672.0156,340.7031 671.7813,340.5938 671.6406,340.4531 C671.5,340.3281 671.4688,340.2031 671.4063,339.7969 C671.3125,339.3906 671.1406,339.1719 670.6563,338.8906 C670.1875,338.6406 669.5781,338.4844 669,338.4844 C667.2656,338.4844 666.0156,339.7969 666.0156,341.5781 L666.0156,342.6719 C666.0156,344.375 667.3125,345.4688 669.3594,345.4688 C670.125,345.4688 670.8125,345.3438 671.2344,345.0781 C671.4219,344.9844 671.4219,344.9844 671.875,344.5 C672.0625,344.3125 672.2656,344.2344 672.4844,344.2344 C672.9531,344.2344 673.3438,344.625 673.3438,345.0781 C673.3438,345.4688 673.0156,345.9219 672.4375,346.3281 C671.6875,346.875 670.5313,347.1719 669.3125,347.1719 C666.4219,347.1719 664.3125,345.2813 664.3125,342.7031 L664.3125,341.5781 C664.3125,338.8594 666.3125,336.7813 668.9375,336.7813 C669.8125,336.7813 670.4063,336.9219 671.3438,337.3594 Z "/><text fill="#000000" font-family="sans-serif" font-size="12" lengthAdjust="spacingAndGlyphs" textLength="90" x="683" y="345.8418">SystemService</text><line style="stroke: #A80036; stroke-width: 1.5;" x1="655" x2="775" y1="357.6875" y2="357.6875"/><line style="stroke: #A80036; stroke-width: 1.5;" x1="655" x2="775" y1="365.6875" y2="365.6875"/><!--link SystemService to ClipboardService--><path d="M713.03,394.3875 C710.693,446.2165 706.885,530.6955 705.052,571.3626 " fill="none" id="SystemService-ClipboardService" style="stroke: #A80036; stroke-width: 1.0;"/><polygon fill="none" points="706.052,393.7475,713.945,374.0835,720.037,394.3785,706.052,393.7475" style="stroke: #A80036; stroke-width: 1.0;"/><!--link Object to SystemService--><path d="M606.074,263.8805 C610.408,267.5665 614.775,271.2255 619,274.6875 C640.323,292.1595 664.961,311.1275 683.939,325.4845 " fill="none" id="Object-SystemService" style="stroke: #A80036; stroke-width: 1.0;"/><polygon fill="none" points="601.389,269.0835,590.825,250.7155,610.538,258.4865,601.389,269.0835" style="stroke: #A80036; stroke-width: 1.0;"/><!--link Object to HostClipboardMonitor--><path d="M576.646,270.1265 C588.098,306.5475 608.221,359.1115 638,397.6875 C670.571,439.8815 795.985,529.1855 857.114,571.5077 " fill="none" id="Object-HostClipboardMonitor" style="stroke: #A80036; stroke-width: 1.0;"/><polygon fill="none" points="569.883,271.9405,570.898,250.7755,583.303,267.9535,569.883,271.9405" style="stroke: #A80036; stroke-width: 1.0;"/><!--link Runnable to HostClipboardMonitor--><path d="M745.948,249.0965 C762.832,257.3455 779.739,268.3415 792,282.6875 C866.951,370.3825 885.286,515.1845 889.665,571.3823 " fill="none" id="Runnable-HostClipboardMonitor" style="stroke: #A80036; stroke-width: 1.0; stroke-dasharray: 7.0,7.0;"/><polygon fill="none" points="743.041,255.4645,727.504,241.0565,748.635,242.6315,743.041,255.4645" style="stroke: #A80036; stroke-width: 1.0;"/><!--link Object to PerUserClipboard--><path d="M560.87,270.9965 C553.423,349.0815 537.986,510.9475 532.229,571.3167 " fill="none" id="Object-PerUserClipboard" style="stroke: #A80036; stroke-width: 1.0;"/><polygon fill="none" points="553.917,270.1685,562.784,250.9235,567.854,271.4975,553.917,270.1685" style="stroke: #A80036; stroke-width: 1.0;"/><!--link IClipboard.Stub to ClipboardImpl--><path d="M226,516.7705 C226,535.1465 226,555.8659 226,571.3172 " fill="none" id="IClipboard.Stub-ClipboardImpl" style="stroke: #A80036; stroke-width: 1.0;"/><polygon fill="none" points="219,516.7315,226,496.7315,233,516.7315,219,516.7315" style="stroke: #A80036; stroke-width: 1.0;"/><!--link Binder to IClipboard.Stub--><path d="M327.122,386.7165 C303.398,406.6515 274.599,430.8505 253.813,448.3175 " fill="none" id="Binder-IClipboard.Stub" style="stroke: #A80036; stroke-width: 1.0;"/><polygon fill="none" points="322.76,381.2385,342.576,373.7315,331.767,391.9575,322.76,381.2385" style="stroke: #A80036; stroke-width: 1.0;"/><!--link IClipboard to IClipboard.Stub--><path d="M138.72,387.8715 C159.244,407.5805 183.825,431.1865 201.664,448.3175 " fill="none" id="IClipboard-IClipboard.Stub" style="stroke: #A80036; stroke-width: 1.0; stroke-dasharray: 7.0,7.0;"/><polygon fill="none" points="133.573,392.6335,123.996,373.7315,143.27,382.5355,133.573,392.6335" style="stroke: #A80036; stroke-width: 1.0;"/><!--link Object to Binder--><path d="M509.652,244.9305 C484.982,254.0415 456.3,266.6885 433,282.6875 C415.763,294.5235 399.552,311.7015 387.892,325.5645 " fill="none" id="Object-Binder" style="stroke: #A80036; stroke-width: 1.0;"/><polygon fill="none" points="507.619,238.2255,528.809,238.2485,512.23,251.4445,507.619,238.2255" style="stroke: #A80036; stroke-width: 1.0;"/><!--link IBinder to Binder--><path d="M370.644,270.7705 C370.492,289.1465 370.321,309.8655 370.193,325.3175 " fill="none" id="IBinder-Binder" style="stroke: #A80036; stroke-width: 1.0; stroke-dasharray: 7.0,7.0;"/><polygon fill="none" points="363.644,270.6725,370.81,250.7315,377.644,270.7885,363.644,270.6725" style="stroke: #A80036; stroke-width: 1.0;"/><!--link IInterface to IClipboard--><path d="M206.343,263.4725 C181.309,283.5325 150.812,307.9705 128.907,325.5235 " fill="none" id="IInterface-IClipboard" style="stroke: #A80036; stroke-width: 1.0;"/><polygon fill="none" points="202.258,257.7755,222.243,250.7315,211.013,268.7005,202.258,257.7755" style="stroke: #A80036; stroke-width: 1.0;"/><!--link Object to ListenerInfo--><path d="M543.27,269.0085 C502.623,346.3005 416.31,510.4305 384.29,571.3167 " fill="none" id="Object-ListenerInfo" style="stroke: #A80036; stroke-width: 1.0;"/><polygon fill="none" points="537.276,265.3665,552.781,250.9235,549.667,271.8835,537.276,265.3665" style="stroke: #A80036; stroke-width: 1.0;"/><!--
@startuml
skinparam titleFontSize 30
title
  Arrow Legend
  |= |=  |
  | A &#8213;&#9655; B | A extends B|
  | A - - -&#9655; B | A implements B|
end title

package android.os{
	class Binder
	interface IBinder
	interface IInterface
}

package com.android.server.clipboard{
	class ClipboardService 
	class HostClipboardMonitor
	class PerUserClipboard
	class ClipboardImpl                    
	class ListenerInfo
}

package java.lang{
	class Object
	interface Runnable
}

package android.content{
	class IClipboard.Stub
	interface IClipboard
}

package com.android.server{
	class SystemService
}

SystemService <|- - ClipboardService
Object <|- - SystemService

Object <|- - HostClipboardMonitor
Runnable <|.. HostClipboardMonitor 


Object <|- - PerUserClipboard

IClipboard.Stub <|- - ClipboardImpl
Binder <|- - IClipboard.Stub
IClipboard <|.. IClipboard.Stub
Object <|- - Binder
IBinder <|.. Binder
IInterface <|- - IClipboard

Object <|- - ListenerInfo
@enduml

PlantUML version 1.2017.18beta10(Unknown compile time)
(GPL source distribution)
Java Runtime: Java(TM) SE Runtime Environment
JVM: Java HotSpot(TM) 64-Bit Server VM
Java Version: 1.7.0_25-b15
Operating System: Linux
Default Encoding: UTF-8
Language: en
Country: US
--></g></svg>