<?xml version="1.0" encoding="UTF-8" standalone="no"?><svg xmlns="http://www.w3.org/2000/svg" xmlns:xlink="http://www.w3.org/1999/xlink" contentScriptType="application/ecmascript" contentStyleType="text/css" height="504px" preserveAspectRatio="none" style="width:1013px;height:504px;" version="1.1" viewBox="0 0 1013 504" width="1013px" zoomAndPan="magnify"><defs><filter height="300%" id="fjvcwxznluf2q" width="300%" x="-1" y="-1"><feGaussianBlur result="blurOut" stdDeviation="2.0"/><feColorMatrix in="blurOut" result="blurOut2" type="matrix" values="0 0 0 0 0 0 0 0 0 0 0 0 0 0 0 0 0 0 .4 0"/><feOffset dx="4.0" dy="4.0" in="blurOut2" result="blurOut3"/><feBlend in="SourceGraphic" in2="blurOut3" mode="normal"/></filter></defs><g><!--cluster android.os--><polygon fill="#FFFFFF" filter="url(#fjvcwxznluf2q)" points="188,24,278,24,285,46.2969,425,46.2969,425,246,188,246,188,24" style="stroke: #000000; stroke-width: 2.0;"/><line style="stroke: #000000; stroke-width: 2.0;" x1="188" x2="285" y1="46.2969" y2="46.2969"/><text fill="#000000" font-family="sans-serif" font-size="14" font-weight="bold" lengthAdjust="spacingAndGlyphs" textLength="84" x="192" y="38.9951">android.os</text><!--cluster com.android.server.clipboard--><polygon fill="#FFFFFF" filter="url(#fjvcwxznluf2q)" points="152,393,391,393,398,415.2969,991,415.2969,991,492,152,492,152,393" style="stroke: #000000; stroke-width: 2.0;"/><line style="stroke: #000000; stroke-width: 2.0;" x1="152" x2="398" y1="415.2969" y2="415.2969"/><text fill="#000000" font-family="sans-serif" font-size="14" font-weight="bold" lengthAdjust="spacingAndGlyphs" textLength="233" x="156" y="407.9951">com.android.server.clipboard</text><!--cluster java.lang--><polygon fill="#FFFFFF" filter="url(#fjvcwxznluf2q)" points="513,24,588,24,595,46.2969,744,46.2969,744,123,513,123,513,24" style="stroke: #000000; stroke-width: 2.0;"/><line style="stroke: #000000; stroke-width: 2.0;" x1="513" x2="595" y1="46.2969" y2="46.2969"/><text fill="#000000" font-family="sans-serif" font-size="14" font-weight="bold" lengthAdjust="spacingAndGlyphs" textLength="69" x="517" y="38.9951">java.lang</text><!--cluster android.content--><polygon fill="#FFFFFF" filter="url(#fjvcwxznluf2q)" points="22,147,154,147,161,169.2969,164,169.2969,164,246,22,246,22,147" style="stroke: #000000; stroke-width: 2.0;"/><line style="stroke: #000000; stroke-width: 2.0;" x1="22" x2="161" y1="169.2969" y2="169.2969"/><text fill="#000000" font-family="sans-serif" font-size="14" font-weight="bold" lengthAdjust="spacingAndGlyphs" textLength="126" x="26" y="161.9951">android.content</text><!--cluster IClipboard--><polygon fill="#FFFFFF" filter="url(#fjvcwxznluf2q)" points="179,270,264,270,271,292.2969,274,292.2969,274,369,179,369,179,270" style="stroke: #000000; stroke-width: 2.0;"/><line style="stroke: #000000; stroke-width: 2.0;" x1="179" x2="271" y1="292.2969" y2="292.2969"/><text fill="#000000" font-family="sans-serif" font-size="14" font-weight="bold" lengthAdjust="spacingAndGlyphs" textLength="79" x="183" y="284.9951">IClipboard</text><!--cluster com.android.server--><polygon fill="#FFFFFF" filter="url(#fjvcwxznluf2q)" points="636,147,797,147,804,169.2969,807,169.2969,807,246,636,246,636,147" style="stroke: #000000; stroke-width: 2.0;"/><line style="stroke: #000000; stroke-width: 2.0;" x1="636" x2="804" y1="169.2969" y2="169.2969"/><text fill="#000000" font-family="sans-serif" font-size="14" font-weight="bold" lengthAdjust="spacingAndGlyphs" textLength="155" x="640" y="161.9951">com.android.server</text><!--class Binder--><rect fill="#FEFECE" filter="url(#fjvcwxznluf2q)" height="48" id="Binder" style="stroke: #A80036; stroke-width: 1.5;" width="72" x="334" y="182"/><ellipse cx="349" cy="198" fill="#ADD1B2" rx="11" ry="11" style="stroke: #A80036; stroke-width: 1.0;"/><path d="M351.3438,193.6719 L351.5156,193.75 C351.7344,193.4375 351.9375,193.3438 352.2344,193.3438 C352.5313,193.3438 352.8125,193.4844 352.9688,193.75 C353.0625,193.9063 353.0781,194.0313 353.0781,194.4688 L353.0781,195.8906 C353.0781,196.3125 353.0469,196.5 352.9375,196.6563 C352.7656,196.875 352.5,197.0156 352.2344,197.0156 C352.0156,197.0156 351.7813,196.9063 351.6406,196.7656 C351.5,196.6406 351.4688,196.5156 351.4063,196.1094 C351.3125,195.7031 351.1406,195.4844 350.6563,195.2031 C350.1875,194.9531 349.5781,194.7969 349,194.7969 C347.2656,194.7969 346.0156,196.1094 346.0156,197.8906 L346.0156,198.9844 C346.0156,200.6875 347.3125,201.7813 349.3594,201.7813 C350.125,201.7813 350.8125,201.6563 351.2344,201.3906 C351.4219,201.2969 351.4219,201.2969 351.875,200.8125 C352.0625,200.625 352.2656,200.5469 352.4844,200.5469 C352.9531,200.5469 353.3438,200.9375 353.3438,201.3906 C353.3438,201.7813 353.0156,202.2344 352.4375,202.6406 C351.6875,203.1875 350.5313,203.4844 349.3125,203.4844 C346.4219,203.4844 344.3125,201.5938 344.3125,199.0156 L344.3125,197.8906 C344.3125,195.1719 346.3125,193.0938 348.9375,193.0938 C349.8125,193.0938 350.4063,193.2344 351.3438,193.6719 Z "/><text fill="#000000" font-family="sans-serif" font-size="12" lengthAdjust="spacingAndGlyphs" textLength="40" x="363" y="202.1543">Binder</text><line style="stroke: #A80036; stroke-width: 1.5;" x1="335" x2="405" y1="214" y2="214"/><line style="stroke: #A80036; stroke-width: 1.5;" x1="335" x2="405" y1="222" y2="222"/><!--class IBinder--><rect fill="#FEFECE" filter="url(#fjvcwxznluf2q)" height="48" id="IBinder" style="stroke: #A80036; stroke-width: 1.5;" width="76" x="333" y="59"/><ellipse cx="348" cy="75" fill="#B4A7E5" rx="11" ry="11" style="stroke: #A80036; stroke-width: 1.0;"/><path d="M348.9531,71.7813 L348.9531,78.2969 L350.6719,78.2969 C351.125,78.2969 351.2656,78.3281 351.4375,78.4531 C351.6719,78.625 351.7813,78.875 351.7813,79.1563 C351.7813,79.7188 351.4219,80 350.6719,80 L345.5313,80 C345.125,80 344.9219,79.9531 344.7656,79.8281 C344.5469,79.6719 344.4063,79.4063 344.4063,79.1563 C344.4063,78.8594 344.5625,78.5781 344.8125,78.4219 C344.9688,78.3125 345.0938,78.2969 345.5313,78.2969 L347.25,78.2969 L347.25,71.7813 L345.5313,71.7813 C345.1094,71.7813 344.9219,71.75 344.7656,71.6406 C344.5469,71.4688 344.4063,71.2188 344.4063,70.9375 C344.4063,70.6563 344.5625,70.3594 344.8125,70.2031 C344.9688,70.1094 345.0938,70.0938 345.5313,70.0938 L350.6719,70.0938 C351.125,70.0938 351.2656,70.125 351.4375,70.2344 C351.6719,70.4063 351.7813,70.6719 351.7813,70.9375 C351.7813,71.2344 351.6406,71.5156 351.375,71.6719 C351.25,71.75 351.0625,71.7813 350.6719,71.7813 Z "/><text fill="#000000" font-family="sans-serif" font-size="12" font-style="italic" lengthAdjust="spacingAndGlyphs" textLength="44" x="362" y="79.1543">IBinder</text><line style="stroke: #A80036; stroke-width: 1.5;" x1="334" x2="408" y1="91" y2="91"/><line style="stroke: #A80036; stroke-width: 1.5;" x1="334" x2="408" y1="99" y2="99"/><!--class IInterface--><rect fill="#FEFECE" filter="url(#fjvcwxznluf2q)" height="48" id="IInterface" style="stroke: #A80036; stroke-width: 1.5;" width="93" x="204.5" y="59"/><ellipse cx="219.5" cy="75" fill="#B4A7E5" rx="11" ry="11" style="stroke: #A80036; stroke-width: 1.0;"/><path d="M220.4531,71.7813 L220.4531,78.2969 L222.1719,78.2969 C222.625,78.2969 222.7656,78.3281 222.9375,78.4531 C223.1719,78.625 223.2813,78.875 223.2813,79.1563 C223.2813,79.7188 222.9219,80 222.1719,80 L217.0313,80 C216.625,80 216.4219,79.9531 216.2656,79.8281 C216.0469,79.6719 215.9063,79.4063 215.9063,79.1563 C215.9063,78.8594 216.0625,78.5781 216.3125,78.4219 C216.4688,78.3125 216.5938,78.2969 217.0313,78.2969 L218.75,78.2969 L218.75,71.7813 L217.0313,71.7813 C216.6094,71.7813 216.4219,71.75 216.2656,71.6406 C216.0469,71.4688 215.9063,71.2188 215.9063,70.9375 C215.9063,70.6563 216.0625,70.3594 216.3125,70.2031 C216.4688,70.1094 216.5938,70.0938 217.0313,70.0938 L222.1719,70.0938 C222.625,70.0938 222.7656,70.125 222.9375,70.2344 C223.1719,70.4063 223.2813,70.6719 223.2813,70.9375 C223.2813,71.2344 223.1406,71.5156 222.875,71.6719 C222.75,71.75 222.5625,71.7813 222.1719,71.7813 Z "/><text fill="#000000" font-family="sans-serif" font-size="12" font-style="italic" lengthAdjust="spacingAndGlyphs" textLength="61" x="233.5" y="79.1543">IInterface</text><line style="stroke: #A80036; stroke-width: 1.5;" x1="205.5" x2="296.5" y1="91" y2="91"/><line style="stroke: #A80036; stroke-width: 1.5;" x1="205.5" x2="296.5" y1="99" y2="99"/><!--class ClipboardService--><rect fill="#FEFECE" filter="url(#fjvcwxznluf2q)" height="48" id="ClipboardService" style="stroke: #A80036; stroke-width: 1.5;" width="136" x="636" y="428"/><ellipse cx="651" cy="444" fill="#ADD1B2" rx="11" ry="11" style="stroke: #A80036; stroke-width: 1.0;"/><path d="M653.3438,439.6719 L653.5156,439.75 C653.7344,439.4375 653.9375,439.3438 654.2344,439.3438 C654.5313,439.3438 654.8125,439.4844 654.9688,439.75 C655.0625,439.9063 655.0781,440.0313 655.0781,440.4688 L655.0781,441.8906 C655.0781,442.3125 655.0469,442.5 654.9375,442.6563 C654.7656,442.875 654.5,443.0156 654.2344,443.0156 C654.0156,443.0156 653.7813,442.9063 653.6406,442.7656 C653.5,442.6406 653.4688,442.5156 653.4063,442.1094 C653.3125,441.7031 653.1406,441.4844 652.6563,441.2031 C652.1875,440.9531 651.5781,440.7969 651,440.7969 C649.2656,440.7969 648.0156,442.1094 648.0156,443.8906 L648.0156,444.9844 C648.0156,446.6875 649.3125,447.7813 651.3594,447.7813 C652.125,447.7813 652.8125,447.6563 653.2344,447.3906 C653.4219,447.2969 653.4219,447.2969 653.875,446.8125 C654.0625,446.625 654.2656,446.5469 654.4844,446.5469 C654.9531,446.5469 655.3438,446.9375 655.3438,447.3906 C655.3438,447.7813 655.0156,448.2344 654.4375,448.6406 C653.6875,449.1875 652.5313,449.4844 651.3125,449.4844 C648.4219,449.4844 646.3125,447.5938 646.3125,445.0156 L646.3125,443.8906 C646.3125,441.1719 648.3125,439.0938 650.9375,439.0938 C651.8125,439.0938 652.4063,439.2344 653.3438,439.6719 Z "/><text fill="#000000" font-family="sans-serif" font-size="12" lengthAdjust="spacingAndGlyphs" textLength="104" x="665" y="448.1543">ClipboardService</text><line style="stroke: #A80036; stroke-width: 1.5;" x1="637" x2="771" y1="460" y2="460"/><line style="stroke: #A80036; stroke-width: 1.5;" x1="637" x2="771" y1="468" y2="468"/><!--class HostClipboardMonitor--><rect fill="#FEFECE" filter="url(#fjvcwxznluf2q)" height="48" id="HostClipboardMonitor" style="stroke: #A80036; stroke-width: 1.5;" width="167" x="807.5" y="428"/><ellipse cx="822.5" cy="444" fill="#ADD1B2" rx="11" ry="11" style="stroke: #A80036; stroke-width: 1.0;"/><path d="M824.8438,439.6719 L825.0156,439.75 C825.2344,439.4375 825.4375,439.3438 825.7344,439.3438 C826.0313,439.3438 826.3125,439.4844 826.4688,439.75 C826.5625,439.9063 826.5781,440.0313 826.5781,440.4688 L826.5781,441.8906 C826.5781,442.3125 826.5469,442.5 826.4375,442.6563 C826.2656,442.875 826,443.0156 825.7344,443.0156 C825.5156,443.0156 825.2813,442.9063 825.1406,442.7656 C825,442.6406 824.9688,442.5156 824.9063,442.1094 C824.8125,441.7031 824.6406,441.4844 824.1563,441.2031 C823.6875,440.9531 823.0781,440.7969 822.5,440.7969 C820.7656,440.7969 819.5156,442.1094 819.5156,443.8906 L819.5156,444.9844 C819.5156,446.6875 820.8125,447.7813 822.8594,447.7813 C823.625,447.7813 824.3125,447.6563 824.7344,447.3906 C824.9219,447.2969 824.9219,447.2969 825.375,446.8125 C825.5625,446.625 825.7656,446.5469 825.9844,446.5469 C826.4531,446.5469 826.8438,446.9375 826.8438,447.3906 C826.8438,447.7813 826.5156,448.2344 825.9375,448.6406 C825.1875,449.1875 824.0313,449.4844 822.8125,449.4844 C819.9219,449.4844 817.8125,447.5938 817.8125,445.0156 L817.8125,443.8906 C817.8125,441.1719 819.8125,439.0938 822.4375,439.0938 C823.3125,439.0938 823.9063,439.2344 824.8438,439.6719 Z "/><text fill="#000000" font-family="sans-serif" font-size="12" lengthAdjust="spacingAndGlyphs" textLength="135" x="836.5" y="448.1543">HostClipboardMonitor</text><line style="stroke: #A80036; stroke-width: 1.5;" x1="808.5" x2="973.5" y1="460" y2="460"/><line style="stroke: #A80036; stroke-width: 1.5;" x1="808.5" x2="973.5" y1="468" y2="468"/><!--class PerUserClipboard--><rect fill="#FEFECE" filter="url(#fjvcwxznluf2q)" height="48" id="PerUserClipboard" style="stroke: #A80036; stroke-width: 1.5;" width="141" x="459.5" y="428"/><ellipse cx="474.5" cy="444" fill="#ADD1B2" rx="11" ry="11" style="stroke: #A80036; stroke-width: 1.0;"/><path d="M476.8438,439.6719 L477.0156,439.75 C477.2344,439.4375 477.4375,439.3438 477.7344,439.3438 C478.0313,439.3438 478.3125,439.4844 478.4688,439.75 C478.5625,439.9063 478.5781,440.0313 478.5781,440.4688 L478.5781,441.8906 C478.5781,442.3125 478.5469,442.5 478.4375,442.6563 C478.2656,442.875 478,443.0156 477.7344,443.0156 C477.5156,443.0156 477.2813,442.9063 477.1406,442.7656 C477,442.6406 476.9688,442.5156 476.9063,442.1094 C476.8125,441.7031 476.6406,441.4844 476.1563,441.2031 C475.6875,440.9531 475.0781,440.7969 474.5,440.7969 C472.7656,440.7969 471.5156,442.1094 471.5156,443.8906 L471.5156,444.9844 C471.5156,446.6875 472.8125,447.7813 474.8594,447.7813 C475.625,447.7813 476.3125,447.6563 476.7344,447.3906 C476.9219,447.2969 476.9219,447.2969 477.375,446.8125 C477.5625,446.625 477.7656,446.5469 477.9844,446.5469 C478.4531,446.5469 478.8438,446.9375 478.8438,447.3906 C478.8438,447.7813 478.5156,448.2344 477.9375,448.6406 C477.1875,449.1875 476.0313,449.4844 474.8125,449.4844 C471.9219,449.4844 469.8125,447.5938 469.8125,445.0156 L469.8125,443.8906 C469.8125,441.1719 471.8125,439.0938 474.4375,439.0938 C475.3125,439.0938 475.9063,439.2344 476.8438,439.6719 Z "/><text fill="#000000" font-family="sans-serif" font-size="12" lengthAdjust="spacingAndGlyphs" textLength="109" x="488.5" y="448.1543">PerUserClipboard</text><line style="stroke: #A80036; stroke-width: 1.5;" x1="460.5" x2="599.5" y1="460" y2="460"/><line style="stroke: #A80036; stroke-width: 1.5;" x1="460.5" x2="599.5" y1="468" y2="468"/><!--class ClipboardImpl--><rect fill="#FEFECE" filter="url(#fjvcwxznluf2q)" height="48" id="ClipboardImpl" style="stroke: #A80036; stroke-width: 1.5;" width="116" x="168" y="428"/><ellipse cx="183" cy="444" fill="#ADD1B2" rx="11" ry="11" style="stroke: #A80036; stroke-width: 1.0;"/><path d="M185.3438,439.6719 L185.5156,439.75 C185.7344,439.4375 185.9375,439.3438 186.2344,439.3438 C186.5313,439.3438 186.8125,439.4844 186.9688,439.75 C187.0625,439.9063 187.0781,440.0313 187.0781,440.4688 L187.0781,441.8906 C187.0781,442.3125 187.0469,442.5 186.9375,442.6563 C186.7656,442.875 186.5,443.0156 186.2344,443.0156 C186.0156,443.0156 185.7813,442.9063 185.6406,442.7656 C185.5,442.6406 185.4688,442.5156 185.4063,442.1094 C185.3125,441.7031 185.1406,441.4844 184.6563,441.2031 C184.1875,440.9531 183.5781,440.7969 183,440.7969 C181.2656,440.7969 180.0156,442.1094 180.0156,443.8906 L180.0156,444.9844 C180.0156,446.6875 181.3125,447.7813 183.3594,447.7813 C184.125,447.7813 184.8125,447.6563 185.2344,447.3906 C185.4219,447.2969 185.4219,447.2969 185.875,446.8125 C186.0625,446.625 186.2656,446.5469 186.4844,446.5469 C186.9531,446.5469 187.3438,446.9375 187.3438,447.3906 C187.3438,447.7813 187.0156,448.2344 186.4375,448.6406 C185.6875,449.1875 184.5313,449.4844 183.3125,449.4844 C180.4219,449.4844 178.3125,447.5938 178.3125,445.0156 L178.3125,443.8906 C178.3125,441.1719 180.3125,439.0938 182.9375,439.0938 C183.8125,439.0938 184.4063,439.2344 185.3438,439.6719 Z "/><text fill="#000000" font-family="sans-serif" font-size="12" lengthAdjust="spacingAndGlyphs" textLength="84" x="197" y="448.1543">ClipboardImpl</text><line style="stroke: #A80036; stroke-width: 1.5;" x1="169" x2="283" y1="460" y2="460"/><line style="stroke: #A80036; stroke-width: 1.5;" x1="169" x2="283" y1="468" y2="468"/><!--class ListenerInfo--><rect fill="#FEFECE" filter="url(#fjvcwxznluf2q)" height="48" id="ListenerInfo" style="stroke: #A80036; stroke-width: 1.5;" width="105" x="319.5" y="428"/><ellipse cx="334.5" cy="444" fill="#ADD1B2" rx="11" ry="11" style="stroke: #A80036; stroke-width: 1.0;"/><path d="M336.8438,439.6719 L337.0156,439.75 C337.2344,439.4375 337.4375,439.3438 337.7344,439.3438 C338.0313,439.3438 338.3125,439.4844 338.4688,439.75 C338.5625,439.9063 338.5781,440.0313 338.5781,440.4688 L338.5781,441.8906 C338.5781,442.3125 338.5469,442.5 338.4375,442.6563 C338.2656,442.875 338,443.0156 337.7344,443.0156 C337.5156,443.0156 337.2813,442.9063 337.1406,442.7656 C337,442.6406 336.9688,442.5156 336.9063,442.1094 C336.8125,441.7031 336.6406,441.4844 336.1563,441.2031 C335.6875,440.9531 335.0781,440.7969 334.5,440.7969 C332.7656,440.7969 331.5156,442.1094 331.5156,443.8906 L331.5156,444.9844 C331.5156,446.6875 332.8125,447.7813 334.8594,447.7813 C335.625,447.7813 336.3125,447.6563 336.7344,447.3906 C336.9219,447.2969 336.9219,447.2969 337.375,446.8125 C337.5625,446.625 337.7656,446.5469 337.9844,446.5469 C338.4531,446.5469 338.8438,446.9375 338.8438,447.3906 C338.8438,447.7813 338.5156,448.2344 337.9375,448.6406 C337.1875,449.1875 336.0313,449.4844 334.8125,449.4844 C331.9219,449.4844 329.8125,447.5938 329.8125,445.0156 L329.8125,443.8906 C329.8125,441.1719 331.8125,439.0938 334.4375,439.0938 C335.3125,439.0938 335.9063,439.2344 336.8438,439.6719 Z "/><text fill="#000000" font-family="sans-serif" font-size="12" lengthAdjust="spacingAndGlyphs" textLength="73" x="348.5" y="448.1543">ListenerInfo</text><line style="stroke: #A80036; stroke-width: 1.5;" x1="320.5" x2="423.5" y1="460" y2="460"/><line style="stroke: #A80036; stroke-width: 1.5;" x1="320.5" x2="423.5" y1="468" y2="468"/><!--class Object--><rect fill="#FEFECE" filter="url(#fjvcwxznluf2q)" height="48" id="Object" style="stroke: #A80036; stroke-width: 1.5;" width="72" x="529" y="59"/><ellipse cx="544" cy="75" fill="#ADD1B2" rx="11" ry="11" style="stroke: #A80036; stroke-width: 1.0;"/><path d="M546.3438,70.6719 L546.5156,70.75 C546.7344,70.4375 546.9375,70.3438 547.2344,70.3438 C547.5313,70.3438 547.8125,70.4844 547.9688,70.75 C548.0625,70.9063 548.0781,71.0313 548.0781,71.4688 L548.0781,72.8906 C548.0781,73.3125 548.0469,73.5 547.9375,73.6563 C547.7656,73.875 547.5,74.0156 547.2344,74.0156 C547.0156,74.0156 546.7813,73.9063 546.6406,73.7656 C546.5,73.6406 546.4688,73.5156 546.4063,73.1094 C546.3125,72.7031 546.1406,72.4844 545.6563,72.2031 C545.1875,71.9531 544.5781,71.7969 544,71.7969 C542.2656,71.7969 541.0156,73.1094 541.0156,74.8906 L541.0156,75.9844 C541.0156,77.6875 542.3125,78.7813 544.3594,78.7813 C545.125,78.7813 545.8125,78.6563 546.2344,78.3906 C546.4219,78.2969 546.4219,78.2969 546.875,77.8125 C547.0625,77.625 547.2656,77.5469 547.4844,77.5469 C547.9531,77.5469 548.3438,77.9375 548.3438,78.3906 C548.3438,78.7813 548.0156,79.2344 547.4375,79.6406 C546.6875,80.1875 545.5313,80.4844 544.3125,80.4844 C541.4219,80.4844 539.3125,78.5938 539.3125,76.0156 L539.3125,74.8906 C539.3125,72.1719 541.3125,70.0938 543.9375,70.0938 C544.8125,70.0938 545.4063,70.2344 546.3438,70.6719 Z "/><text fill="#000000" font-family="sans-serif" font-size="12" lengthAdjust="spacingAndGlyphs" textLength="40" x="558" y="79.1543">Object</text><line style="stroke: #A80036; stroke-width: 1.5;" x1="530" x2="600" y1="91" y2="91"/><line style="stroke: #A80036; stroke-width: 1.5;" x1="530" x2="600" y1="99" y2="99"/><!--class Runnable--><rect fill="#FEFECE" filter="url(#fjvcwxznluf2q)" height="48" id="Runnable" style="stroke: #A80036; stroke-width: 1.5;" width="91" x="636.5" y="59"/><ellipse cx="651.5" cy="75" fill="#B4A7E5" rx="11" ry="11" style="stroke: #A80036; stroke-width: 1.0;"/><path d="M652.4531,71.7813 L652.4531,78.2969 L654.1719,78.2969 C654.625,78.2969 654.7656,78.3281 654.9375,78.4531 C655.1719,78.625 655.2813,78.875 655.2813,79.1563 C655.2813,79.7188 654.9219,80 654.1719,80 L649.0313,80 C648.625,80 648.4219,79.9531 648.2656,79.8281 C648.0469,79.6719 647.9063,79.4063 647.9063,79.1563 C647.9063,78.8594 648.0625,78.5781 648.3125,78.4219 C648.4688,78.3125 648.5938,78.2969 649.0313,78.2969 L650.75,78.2969 L650.75,71.7813 L649.0313,71.7813 C648.6094,71.7813 648.4219,71.75 648.2656,71.6406 C648.0469,71.4688 647.9063,71.2188 647.9063,70.9375 C647.9063,70.6563 648.0625,70.3594 648.3125,70.2031 C648.4688,70.1094 648.5938,70.0938 649.0313,70.0938 L654.1719,70.0938 C654.625,70.0938 654.7656,70.125 654.9375,70.2344 C655.1719,70.4063 655.2813,70.6719 655.2813,70.9375 C655.2813,71.2344 655.1406,71.5156 654.875,71.6719 C654.75,71.75 654.5625,71.7813 654.1719,71.7813 Z "/><text fill="#000000" font-family="sans-serif" font-size="12" font-style="italic" lengthAdjust="spacingAndGlyphs" textLength="59" x="665.5" y="79.1543">Runnable</text><line style="stroke: #A80036; stroke-width: 1.5;" x1="637.5" x2="726.5" y1="91" y2="91"/><line style="stroke: #A80036; stroke-width: 1.5;" x1="637.5" x2="726.5" y1="99" y2="99"/><!--class IClipboard--><rect fill="#FEFECE" filter="url(#fjvcwxznluf2q)" height="48" id="IClipboard" style="stroke: #A80036; stroke-width: 1.5;" width="95" x="52.5" y="182"/><ellipse cx="67.5" cy="198" fill="#B4A7E5" rx="11" ry="11" style="stroke: #A80036; stroke-width: 1.0;"/><path d="M68.4531,194.7813 L68.4531,201.2969 L70.1719,201.2969 C70.625,201.2969 70.7656,201.3281 70.9375,201.4531 C71.1719,201.625 71.2813,201.875 71.2813,202.1563 C71.2813,202.7188 70.9219,203 70.1719,203 L65.0313,203 C64.625,203 64.4219,202.9531 64.2656,202.8281 C64.0469,202.6719 63.9063,202.4063 63.9063,202.1563 C63.9063,201.8594 64.0625,201.5781 64.3125,201.4219 C64.4688,201.3125 64.5938,201.2969 65.0313,201.2969 L66.75,201.2969 L66.75,194.7813 L65.0313,194.7813 C64.6094,194.7813 64.4219,194.75 64.2656,194.6406 C64.0469,194.4688 63.9063,194.2188 63.9063,193.9375 C63.9063,193.6563 64.0625,193.3594 64.3125,193.2031 C64.4688,193.1094 64.5938,193.0938 65.0313,193.0938 L70.1719,193.0938 C70.625,193.0938 70.7656,193.125 70.9375,193.2344 C71.1719,193.4063 71.2813,193.6719 71.2813,193.9375 C71.2813,194.2344 71.1406,194.5156 70.875,194.6719 C70.75,194.75 70.5625,194.7813 70.1719,194.7813 Z "/><text fill="#000000" font-family="sans-serif" font-size="12" font-style="italic" lengthAdjust="spacingAndGlyphs" textLength="63" x="81.5" y="202.1543">IClipboard</text><line style="stroke: #A80036; stroke-width: 1.5;" x1="53.5" x2="146.5" y1="214" y2="214"/><line style="stroke: #A80036; stroke-width: 1.5;" x1="53.5" x2="146.5" y1="222" y2="222"/><!--class IClipboard.Stub--><rect fill="#FEFECE" filter="url(#fjvcwxznluf2q)" height="48" id="IClipboard.Stub" style="stroke: #A80036; stroke-width: 1.5;" width="61" x="195.5" y="305"/><ellipse cx="210.5" cy="321" fill="#ADD1B2" rx="11" ry="11" style="stroke: #A80036; stroke-width: 1.0;"/><path d="M212.8438,316.6719 L213.0156,316.75 C213.2344,316.4375 213.4375,316.3438 213.7344,316.3438 C214.0313,316.3438 214.3125,316.4844 214.4688,316.75 C214.5625,316.9063 214.5781,317.0313 214.5781,317.4688 L214.5781,318.8906 C214.5781,319.3125 214.5469,319.5 214.4375,319.6563 C214.2656,319.875 214,320.0156 213.7344,320.0156 C213.5156,320.0156 213.2813,319.9063 213.1406,319.7656 C213,319.6406 212.9688,319.5156 212.9063,319.1094 C212.8125,318.7031 212.6406,318.4844 212.1563,318.2031 C211.6875,317.9531 211.0781,317.7969 210.5,317.7969 C208.7656,317.7969 207.5156,319.1094 207.5156,320.8906 L207.5156,321.9844 C207.5156,323.6875 208.8125,324.7813 210.8594,324.7813 C211.625,324.7813 212.3125,324.6563 212.7344,324.3906 C212.9219,324.2969 212.9219,324.2969 213.375,323.8125 C213.5625,323.625 213.7656,323.5469 213.9844,323.5469 C214.4531,323.5469 214.8438,323.9375 214.8438,324.3906 C214.8438,324.7813 214.5156,325.2344 213.9375,325.6406 C213.1875,326.1875 212.0313,326.4844 210.8125,326.4844 C207.9219,326.4844 205.8125,324.5938 205.8125,322.0156 L205.8125,320.8906 C205.8125,318.1719 207.8125,316.0938 210.4375,316.0938 C211.3125,316.0938 211.9063,316.2344 212.8438,316.6719 Z "/><text fill="#000000" font-family="sans-serif" font-size="12" lengthAdjust="spacingAndGlyphs" textLength="29" x="224.5" y="325.1543">Stub</text><line style="stroke: #A80036; stroke-width: 1.5;" x1="196.5" x2="255.5" y1="337" y2="337"/><line style="stroke: #A80036; stroke-width: 1.5;" x1="196.5" x2="255.5" y1="345" y2="345"/><!--class SystemService--><rect fill="#FEFECE" filter="url(#fjvcwxznluf2q)" height="48" id="SystemService" style="stroke: #A80036; stroke-width: 1.5;" width="122" x="654" y="182"/><ellipse cx="669" cy="198" fill="#ADD1B2" rx="11" ry="11" style="stroke: #A80036; stroke-width: 1.0;"/><path d="M671.3438,193.6719 L671.5156,193.75 C671.7344,193.4375 671.9375,193.3438 672.2344,193.3438 C672.5313,193.3438 672.8125,193.4844 672.9688,193.75 C673.0625,193.9063 673.0781,194.0313 673.0781,194.4688 L673.0781,195.8906 C673.0781,196.3125 673.0469,196.5 672.9375,196.6563 C672.7656,196.875 672.5,197.0156 672.2344,197.0156 C672.0156,197.0156 671.7813,196.9063 671.6406,196.7656 C671.5,196.6406 671.4688,196.5156 671.4063,196.1094 C671.3125,195.7031 671.1406,195.4844 670.6563,195.2031 C670.1875,194.9531 669.5781,194.7969 669,194.7969 C667.2656,194.7969 666.0156,196.1094 666.0156,197.8906 L666.0156,198.9844 C666.0156,200.6875 667.3125,201.7813 669.3594,201.7813 C670.125,201.7813 670.8125,201.6563 671.2344,201.3906 C671.4219,201.2969 671.4219,201.2969 671.875,200.8125 C672.0625,200.625 672.2656,200.5469 672.4844,200.5469 C672.9531,200.5469 673.3438,200.9375 673.3438,201.3906 C673.3438,201.7813 673.0156,202.2344 672.4375,202.6406 C671.6875,203.1875 670.5313,203.4844 669.3125,203.4844 C666.4219,203.4844 664.3125,201.5938 664.3125,199.0156 L664.3125,197.8906 C664.3125,195.1719 666.3125,193.0938 668.9375,193.0938 C669.8125,193.0938 670.4063,193.2344 671.3438,193.6719 Z "/><text fill="#000000" font-family="sans-serif" font-size="12" lengthAdjust="spacingAndGlyphs" textLength="90" x="683" y="202.1543">SystemService</text><line style="stroke: #A80036; stroke-width: 1.5;" x1="655" x2="775" y1="214" y2="214"/><line style="stroke: #A80036; stroke-width: 1.5;" x1="655" x2="775" y1="222" y2="222"/><!--link SystemService to ClipboardService--><path d="M713.03,250.7 C710.693,302.529 706.885,387.008 705.052,427.6751 " fill="none" id="SystemService-ClipboardService" style="stroke: #A80036; stroke-width: 1.0;"/><polygon fill="none" points="706.052,250.06,713.945,230.396,720.037,250.691,706.052,250.06" style="stroke: #A80036; stroke-width: 1.0;"/><!--link Object to SystemService--><path d="M606.074,120.193 C610.408,123.879 614.775,127.538 619,131 C640.323,148.472 664.961,167.44 683.939,181.797 " fill="none" id="Object-SystemService" style="stroke: #A80036; stroke-width: 1.0;"/><polygon fill="none" points="601.389,125.396,590.825,107.028,610.538,114.799,601.389,125.396" style="stroke: #A80036; stroke-width: 1.0;"/><!--link Object to HostClipboardMonitor--><path d="M576.646,126.439 C588.098,162.86 608.221,215.424 638,254 C670.571,296.194 795.985,385.498 857.114,427.8202 " fill="none" id="Object-HostClipboardMonitor" style="stroke: #A80036; stroke-width: 1.0;"/><polygon fill="none" points="569.883,128.253,570.898,107.088,583.303,124.266,569.883,128.253" style="stroke: #A80036; stroke-width: 1.0;"/><!--link Runnable to HostClipboardMonitor--><path d="M745.948,105.409 C762.832,113.658 779.739,124.654 792,139 C866.951,226.695 885.286,371.497 889.665,427.6948 " fill="none" id="Runnable-HostClipboardMonitor" style="stroke: #A80036; stroke-width: 1.0; stroke-dasharray: 7.0,7.0;"/><polygon fill="none" points="743.041,111.777,727.504,97.369,748.635,98.944,743.041,111.777" style="stroke: #A80036; stroke-width: 1.0;"/><!--link Object to PerUserClipboard--><path d="M560.87,127.309 C553.423,205.394 537.986,367.26 532.229,427.6292 " fill="none" id="Object-PerUserClipboard" style="stroke: #A80036; stroke-width: 1.0;"/><polygon fill="none" points="553.917,126.481,562.784,107.236,567.854,127.81,553.917,126.481" style="stroke: #A80036; stroke-width: 1.0;"/><!--link IClipboard.Stub to ClipboardImpl--><path d="M226,373.083 C226,391.459 226,412.1784 226,427.6297 " fill="none" id="IClipboard.Stub-ClipboardImpl" style="stroke: #A80036; stroke-width: 1.0;"/><polygon fill="none" points="219,373.044,226,353.044,233,373.044,219,373.044" style="stroke: #A80036; stroke-width: 1.0;"/><!--link Binder to IClipboard.Stub--><path d="M327.122,243.029 C303.398,262.964 274.599,287.163 253.813,304.63 " fill="none" id="Binder-IClipboard.Stub" style="stroke: #A80036; stroke-width: 1.0;"/><polygon fill="none" points="322.76,237.551,342.576,230.044,331.767,248.27,322.76,237.551" style="stroke: #A80036; stroke-width: 1.0;"/><!--link IClipboard to IClipboard.Stub--><path d="M138.72,244.184 C159.244,263.893 183.825,287.499 201.664,304.63 " fill="none" id="IClipboard-IClipboard.Stub" style="stroke: #A80036; stroke-width: 1.0; stroke-dasharray: 7.0,7.0;"/><polygon fill="none" points="133.573,248.946,123.996,230.044,143.27,238.848,133.573,248.946" style="stroke: #A80036; stroke-width: 1.0;"/><!--link Object to Binder--><path d="M509.652,101.243 C484.982,110.354 456.3,123.001 433,139 C415.763,150.836 399.552,168.014 387.892,181.877 " fill="none" id="Object-Binder" style="stroke: #A80036; stroke-width: 1.0;"/><polygon fill="none" points="507.619,94.538,528.809,94.561,512.23,107.757,507.619,94.538" style="stroke: #A80036; stroke-width: 1.0;"/><!--link IBinder to Binder--><path d="M370.644,127.083 C370.492,145.459 370.321,166.178 370.193,181.63 " fill="none" id="IBinder-Binder" style="stroke: #A80036; stroke-width: 1.0; stroke-dasharray: 7.0,7.0;"/><polygon fill="none" points="363.644,126.985,370.81,107.044,377.644,127.101,363.644,126.985" style="stroke: #A80036; stroke-width: 1.0;"/><!--link IInterface to IClipboard--><path d="M206.343,119.785 C181.309,139.845 150.812,164.283 128.907,181.836 " fill="none" id="IInterface-IClipboard" style="stroke: #A80036; stroke-width: 1.0;"/><polygon fill="none" points="202.258,114.088,222.243,107.044,211.013,125.013,202.258,114.088" style="stroke: #A80036; stroke-width: 1.0;"/><!--link Object to ListenerInfo--><path d="M543.27,125.321 C502.623,202.613 416.31,366.743 384.29,427.6292 " fill="none" id="Object-ListenerInfo" style="stroke: #A80036; stroke-width: 1.0;"/><polygon fill="none" points="537.276,121.679,552.781,107.236,549.667,128.196,537.276,121.679" style="stroke: #A80036; stroke-width: 1.0;"/><!--
@startuml
package android.os{
	class Binder
	interface IBinder
	interface IInterface
}

package com.android.server.clipboard{
	class ClipboardService 
	class HostClipboardMonitor
	class PerUserClipboard
	class ClipboardImpl                    
	class ListenerInfo
}

package java.lang{
	class Object
	interface Runnable
}

package android.content{
	class IClipboard.Stub
	interface IClipboard
}

package com.android.server{
	class SystemService
}

SystemService <|- - ClipboardService
Object <|- - SystemService

Object <|- - HostClipboardMonitor
Runnable <|.. HostClipboardMonitor 


Object <|- - PerUserClipboard

IClipboard.Stub <|- - ClipboardImpl
Binder <|- - IClipboard.Stub
IClipboard <|.. IClipboard.Stub
Object <|- - Binder
IBinder <|.. Binder
IInterface <|- - IClipboard

Object <|- - ListenerInfo
@enduml

PlantUML version 1.2017.18beta10(Unknown compile time)
(GPL source distribution)
Java Runtime: Java(TM) SE Runtime Environment
JVM: Java HotSpot(TM) 64-Bit Server VM
Java Version: 1.7.0_25-b15
Operating System: Linux
Default Encoding: UTF-8
Language: en
Country: US
--></g></svg>